<?xml version="1.0" encoding="UTF-8"?>
<svg width="264.69" height="428.41" version="1.1" viewBox="0 0 264.69 428.41" xmlns="http://www.w3.org/2000/svg" xmlns:cc="http://creativecommons.org/ns#" xmlns:dc="http://purl.org/dc/elements/1.1/" xmlns:rdf="http://www.w3.org/1999/02/22-rdf-syntax-ns#">
 <metadata>
  <rdf:RDF>
   <cc:Work rdf:about="">
    <dc:format>image/svg+xml</dc:format>
    <dc:type rdf:resource="http://purl.org/dc/dcmitype/StillImage"/>
    <dc:title/>
   </cc:Work>
  </rdf:RDF>
 </metadata>
 <g transform="translate(-288.58 -83.635)">
  <path d="m549.02 367.82v-279.94h-256.19v419.91h256.19z" fill="none" stroke="#1b1918" stroke-width="8.5039"/>
  <g fill-rule="evenodd">
   <path d="m471.9 237.57c-7.71-11.144-4.1693-23.535 11.14-22.199 9.6128 0.8399 15.447 12.319 7.8432 21.306-4.1629 5.9742-5.3639 14.797 3.2128 17.392 6.4854 1.9619 21.923 2.5204 27.523-2.1846 9.5589-8.0303 0.2528-43.613-3.1703-53.986-4.8564-14.714-7.2231-25.535-15.598-38.853-6.1068-11.253-24.679-35.606-40.65-44.685-8.0399-4.5702-30.748-15.277-37.156-6.5023-8.9539 12.261 6.6385 70.048-6.7439 79.144-5.5147 3.7485-10.668 2.062-15.837-1.0473-16.085-9.6742-21.731 10.245-12.552 15.669 5.9652 3.5246 10.148-0.3048 15.197-2.764 5.0778-2.4733 11.88-2.1562 15.539 2.5691 6.6416 8.5765 2.1897 27.49 1.7761 38.893-0.2763 7.6176-1.1984 12.276 8.3647 12.547 10.345 0.2884 19.573 2.7375 29.319 2.1609 10.322-0.6103 19.171-6.7946 11.792-17.46z" fill="#6eb31e"/>
   <path d="m345.56 147.62c-4.7665 7.8008-9.9866 15.565-13.463 24.23-7.6202 18.988-14.024 38.391-15.35 58.995-0.5407 8.4005-2.4741 19.041 8.9852 19.409 7.5762 0.2427 19.482-1.8878 25.589 3.537 2.8111 2.4973 4.3295 6.5457 4.1353 10.268-0.2363 4.5215-2.4663 6.5792-4.528 10.205-4.2381 7.4535 1.053 16.183 9.6525 15.264 3.6306-0.3882 6.9898-2.852 8.321-6.2678 1.5373-3.9446 0.1108-7.6119-1.7758-11.132-4.4666-7.4321-5.5517-13.02-0.4869-17.201 3.4299-2.8313 13.538-3.6227 23.937-3.4809 11.314 0.1542 22.778 0.7612 28.499 0.8602-4e-3 -6.2297-0.1057-12.847 0.3005-19.045 0.3699-5.6382 1.8432-11.339 1.8954-16.837 0.1065-11.214-4.7471-21.481-17.042-13.643-9.2889 5.9215-18.493 3.835-21.698-6.528-2.8274-10.787 8.0565-19.391 18.29-14.434 4.6004 2.2286 7.1197 5.7899 13.077 4.0377 12.883-3.7887 5.1673-76.012 0.3541-79.715-18.036-13.876-60.28 27.71-68.691 41.478z" fill="#ffca00"/>
   <path d="m419.62 300.33c0.8412 2.9363 1.1533 4.0031 3.4865 6.0574 1.6177 1.4243 4.9154 2.7494 7.0755 2.2673 3.0899-0.6902 4.2934-1.0234 6.7053-3.0665 1.7642-1.4948 3.8913-3.1643 6.2505-3.5294 8.7368-1.3524 15.897 4.504 15.766 13.265-0.1168 7.7224-8.0634 14.178-15.528 11.76-4.4295-1.4369-8.4193-5.1397-12.402-5.6525-3.2838-0.4229-6.7754 0.6101-9.0097 3.1296-3.265 3.6805-3.2088 10.694-3.0408 15.33 0.2667 7.3599 2.0197 17.895 10.643 19.118 58.663 8.3196 115.01-95.466 89.197-101.21-8.6655-0.5687-21.03 1.8387-28.436-2.8441-3.3755-2.1341-5.2875-6.328-5.2322-10.244 0.0764-5.4082 2.4905-6.6796 4.7411-10.79 4.6171-8.4324-2.3476-17.747-11.725-14.963-3.9565 1.1748-6.7174 4.5945-6.9432 8.7309-0.2741 5.0233 2.4468 7.003 4.6272 10.975 3.7634 6.855 1.0532 17.023-10.025 18.774-9.1279 1.4426-20.046-0.8229-29.357-1.662-17.814-1.6049-14.183 0.4714-15.245 15.579-0.8979 12.775-2.8689 14.925-1.5469 28.972z" fill="#408ec7"/>
   <path d="m321.35 254.94c-11.304 3.8305-1.4235 31.152 1.2898 38.57 3.0619 8.3718 9.5639 18.644 15.109 25.651 6.0949 7.7028 12.771 13.804 20.436 19.908 3.6631 2.9171 8.5911 5.5136 12.706 7.8547 8.3743 4.7651 24.493 10.585 36.037 11.122 3.2393 0.1508 4.4457-0.4243 6.3162-2.3448 2.0248-2.0789 3.4339-6.2886 3.2072-10.669-0.353-10-1.8393-24.706 11.765-25.928 7.1935-0.6456 8.4873 2.9836 14.012 4.7364 13.966 4.4304 17.044-13.987 7.4346-17.757-5.9072-2.318-8.8163 0.8951-13.381 3.4251-4.0913 2.2678-10.748 2.2858-14.575-0.5362-8.1484-6.0098-5.2801-22.765-4.1299-31.354 0.4635-3.46 1.4449-17.979 0.6775-20.965 0.9094-1.2879-45.179-5.2125-50.962 2.4465-3.9988 5.2962 3.4397 13.05 4.6478 15.876 6.5237 15.261-15.258 25.562-24.312 11.386-2.91-5.6187-1.952-11.49 2.0741-15.905 1.9712-2.1621 3.371-4.3597 3.2624-7.3681-0.0913-2.5322-1.4544-5.8254-3.4986-7.3999-2.9354-2.2611-4.7854-2.1153-8.352-2.2625-7.9246-0.3267-12-0.1065-19.764 1.5145z" fill="#e11948"/>
  </g>
  <text x="333.9541" y="433.02219"><tspan fill="#3a3a3a" font-family="'Geometr415 Blk BT'" font-size="54.5px">C</tspan></text>
  <text x="380.46271" y="432.995"><tspan fill="#3a3a3a" font-family="'Geometr415 Blk BT'" font-size="54.5px">O</tspan></text>
  <text x="433.86121" y="431.7446"><tspan fill="#3a3a3a" font-family="'Geometr415 Blk BT'" font-size="54.5px">D</tspan></text>
  <text x="483.9823" y="431.7446"><tspan fill="#3a3a3a" font-family="'Geometr415 Blk BT'" font-size="54.5px">E</tspan></text>
  <text x="333.95471" y="479.42871"><tspan fill="#3a3a3a" font-family="'Geometr415 Blk BT'" font-size="36.5px">GURUKUL</tspan></text>
  <path d="m333.95 438.64v2.1609h173.95v-2.1609z" fill="#3a3a3a" fill-rule="evenodd"/>
 </g>
</svg>
