<?xml version="1.0" standalone="no"?>
<!DOCTYPE svg PUBLIC "-//W3C//DTD SVG 20010904//EN"
 "http://www.w3.org/TR/2001/REC-SVG-20010904/DTD/svg10.dtd">
<svg version="1.0" xmlns="http://www.w3.org/2000/svg"
 width="1945.000000pt" height="330.000000pt" viewBox="0 0 1945.000000 330.000000"
 preserveAspectRatio="xMidYMid meet">

<g transform="translate(0.000000,330.000000) scale(0.100000,-0.100000)"
fill="#000000" stroke="none">
<path d="M7120 858 c-114 -58 -124 -273 -17 -338 73 -45 152 -38 209 20 46 46
48 65 7 79 -40 14 -39 14 -39 -4 0 -29 -47 -65 -83 -65 -68 0 -109 79 -92 179
15 88 106 123 158 61 21 -25 30 -29 56 -24 36 8 36 6 15 45 -18 36 -82 68
-134 69 -20 0 -56 -10 -80 -22z"/>
<path d="M8160 840 c0 -28 3 -30 35 -30 32 0 35 2 35 30 0 28 -3 30 -35 30
-32 0 -35 -2 -35 -30z"/>
<path d="M8920 680 l0 -190 40 0 40 0 0 190 0 190 -40 0 -40 0 0 -190z"/>
<path d="M10095 859 c-47 -27 -60 -83 -29 -127 14 -21 13 -24 -25 -60 -32 -31
-41 -46 -41 -73 0 -89 110 -137 204 -90 37 19 38 19 70 0 l33 -19 18 26 c17
27 17 28 -8 46 -25 18 -25 20 -11 54 17 42 18 41 -18 46 -18 2 -32 -3 -40 -15
-13 -17 -15 -16 -37 14 l-23 31 31 28 c62 57 29 138 -61 146 -24 3 -52 -1 -63
-7z m90 -78 c0 -13 -8 -29 -18 -35 -15 -9 -22 -7 -38 13 -24 29 -9 54 30 49
20 -2 26 -9 26 -27z m-25 -162 c32 -40 32 -43 15 -55 -41 -30 -105 -7 -105 37
0 19 33 59 48 59 5 0 24 -19 42 -41z"/>
<path d="M10550 681 l0 -191 35 0 35 0 0 70 0 70 55 0 c106 0 155 39 155 122
0 39 -6 54 -29 80 l-29 33 -111 3 -111 4 0 -191z m194 107 c37 -53 3 -98 -74
-98 l-50 0 0 60 0 60 54 0 c45 0 58 -4 70 -22z"/>
<path d="M11100 840 c0 -28 3 -30 35 -30 32 0 35 2 35 30 0 28 -3 30 -35 30
-32 0 -35 -2 -35 -30z"/>
<path d="M11540 840 c0 -28 2 -30 40 -30 38 0 40 2 40 30 0 28 -2 30 -40 30
-38 0 -40 -2 -40 -30z"/>
<path d="M7832 758 c-19 -19 -22 -20 -22 -5 0 13 -9 17 -35 17 l-35 0 0 -140
0 -140 34 0 34 0 4 94 c4 104 15 126 58 126 22 0 29 6 34 27 12 45 -34 59 -72
21z"/>
<path d="M8040 760 c-24 -24 -30 -25 -30 -5 0 10 -10 15 -30 15 l-30 0 0 -140
0 -140 35 0 35 0 0 88 c0 98 14 132 56 132 31 0 57 46 33 61 -23 14 -48 10
-69 -11z"/>
<path d="M8363 766 c-96 -43 -98 -212 -4 -261 54 -27 120 -16 160 26 28 31 26
46 -6 52 -22 5 -32 0 -46 -19 -21 -27 -54 -31 -82 -10 -26 19 -33 117 -11 151
21 32 68 34 89 4 12 -17 20 -19 48 -12 l32 9 -29 33 c-35 39 -99 51 -151 27z"/>
<path d="M9504 770 c-12 -5 -25 -13 -29 -19 -9 -16 -25 -13 -25 4 0 10 -10 15
-30 15 l-30 0 0 -140 0 -140 35 0 35 0 0 98 c0 109 13 142 56 142 34 0 44 -32
44 -146 l0 -94 35 0 35 0 0 103 c0 88 3 106 18 120 10 10 25 17 33 17 32 0 39
-23 39 -132 l0 -108 35 0 35 0 0 119 c0 145 -10 166 -84 166 -29 0 -51 -6 -62
-17 -15 -15 -19 -15 -48 3 -33 20 -58 23 -92 9z"/>
<path d="M10982 758 c-19 -19 -22 -20 -22 -5 0 13 -9 17 -35 17 l-35 0 0 -140
0 -140 40 0 40 0 0 91 c0 105 9 129 49 129 23 0 31 6 39 29 8 24 7 31 -5 35
-28 11 -48 6 -71 -16z"/>
<path d="M11303 765 c-64 -27 -89 -143 -47 -215 39 -68 147 -78 206 -20 15 16
28 33 28 38 0 14 -64 25 -68 12 -13 -39 -68 -52 -94 -22 -32 36 -29 142 4 164
23 14 57 8 71 -12 11 -16 21 -19 45 -14 18 4 32 8 32 11 0 18 -27 47 -55 59
-43 17 -81 17 -122 -1z"/>
<path d="M11793 760 c-27 -16 -33 -17 -33 -5 0 10 -11 15 -35 15 l-35 0 0
-140 0 -140 35 0 35 0 0 91 c0 109 16 148 62 149 38 0 48 -27 48 -136 l0 -104
35 0 35 0 0 116 c0 114 0 116 -29 145 -35 35 -72 37 -118 9z"/>
<path d="M12071 768 c-84 -45 -95 -189 -20 -253 35 -28 71 -32 113 -10 15 8
30 15 33 15 8 0 -10 -75 -21 -82 -19 -13 -75 -9 -83 6 -4 7 -25 16 -45 20 -46
8 -51 -8 -15 -49 27 -31 105 -44 161 -25 63 20 71 43 75 222 l3 158 -36 0
c-27 0 -36 -4 -36 -17 0 -15 -1 -15 -19 1 -25 23 -80 30 -110 14z m105 -59
c13 -14 18 -36 18 -74 0 -60 -22 -95 -60 -95 -45 0 -74 63 -59 129 13 60 64
81 101 40z"/>
<path d="M7420 659 c0 -110 0 -111 30 -141 27 -27 36 -30 71 -25 22 3 49 13
60 23 18 16 19 16 19 -4 0 -18 6 -22 35 -22 l35 0 0 140 0 140 -34 0 -34 0 -4
-101 c-4 -109 -14 -129 -65 -129 -34 0 -43 29 -43 134 l0 96 -35 0 -35 0 0
-111z"/>
<path d="M8160 630 l0 -140 35 0 35 0 0 140 0 140 -35 0 -35 0 0 -140z"/>
<path d="M8600 659 c0 -61 4 -118 10 -128 22 -43 111 -51 152 -14 17 15 18 15
18 -5 0 -18 6 -22 35 -22 l35 0 0 140 0 140 -40 0 -40 0 0 -99 c0 -107 -10
-131 -54 -131 -39 0 -46 18 -46 127 l0 103 -35 0 -35 0 0 -111z"/>
<path d="M9070 659 c0 -110 0 -111 30 -141 27 -27 36 -30 71 -25 22 3 49 13
60 23 18 16 19 16 19 -4 0 -18 6 -22 35 -22 l35 0 0 140 0 140 -34 0 -34 0 -4
-101 c-4 -109 -14 -129 -65 -129 -34 0 -43 29 -43 134 l0 96 -35 0 -35 0 0
-111z"/>
<path d="M11100 630 l0 -140 35 0 35 0 0 140 0 140 -35 0 -35 0 0 -140z"/>
<path d="M11540 630 l0 -140 40 0 40 0 0 140 0 140 -40 0 -40 0 0 -140z"/>
</g>
</svg>
