<svg width="29" height="26" viewBox="0 0 29 26" fill="none" xmlns="http://www.w3.org/2000/svg">
<path d="M27.8803 10.7324H26.7518V10.6819H14.143V15.5478H22.0606C20.9055 18.3803 17.8017 20.4137 14.143 20.4137C9.5009 20.4137 5.73719 17.1456 5.73719 13.1148C5.73719 9.08406 9.5009 5.81601 14.143 5.81601C16.2858 5.81601 18.2353 6.51791 19.7196 7.66444L23.6822 4.22365C21.1801 2.19883 17.8332 0.950119 14.143 0.950119C6.40615 0.950119 0.133301 6.39688 0.133301 13.1148C0.133301 19.8328 6.40615 25.2796 14.143 25.2796C21.8799 25.2796 28.1527 19.8328 28.1527 13.1148C28.1527 12.2992 28.0561 11.503 27.8803 10.7324Z" fill="#FFC107"/>
<path d="M1.74854 7.45276L6.35143 10.3839C7.59689 7.7064 10.6132 5.816 14.1429 5.816C16.2857 5.816 18.2352 6.51791 19.7195 7.66443L23.6822 4.22364C21.18 2.19883 17.8331 0.950119 14.1429 0.950119C8.7618 0.950119 4.09516 3.58804 1.74854 7.45276Z" fill="#FF3D00"/>
<path d="M14.1435 25.2797C17.7622 25.2797 21.0503 24.0772 23.5363 22.1217L19.2003 18.9357C17.7465 19.8958 15.97 20.415 14.1435 20.4138C10.4996 20.4138 7.40556 18.3962 6.23995 15.5807L1.67139 18.6371C3.98999 22.5766 8.69866 25.2797 14.1435 25.2797Z" fill="#4CAF50"/>
<path d="M27.8803 10.7325H26.7518V10.682H14.1431V15.5479H22.0607C21.5081 16.896 20.5128 18.074 19.1978 18.9364L19.1999 18.9351L23.5359 22.1211C23.2291 22.3632 28.1528 19.1973 28.1528 13.1149C28.1528 12.2993 28.0561 11.5031 27.8803 10.7325Z" fill="#1976D2"/>
</svg>
