<svg width="327" height="23" viewBox="0 0 327 23" fill="none" xmlns="http://www.w3.org/2000/svg">
<path d="M93.6653 7.704C93.6653 8.348 93.5633 8.94 93.3593 9.48C93.1553 10.016 92.8673 10.478 92.4953 10.866C92.1233 11.254 91.6753 11.556 91.1513 11.772C90.6313 11.984 90.0553 12.09 89.4233 12.09C88.7913 12.09 88.2153 11.984 87.6953 11.772C87.1753 11.556 86.7293 11.254 86.3573 10.866C85.9853 10.478 85.6973 10.016 85.4933 9.48C85.2893 8.94 85.1873 8.348 85.1873 7.704C85.1873 7.06 85.2893 6.47 85.4933 5.934C85.6973 5.394 85.9853 4.93 86.3573 4.542C86.7293 4.15 87.1753 3.846 87.6953 3.63C88.2153 3.414 88.7913 3.306 89.4233 3.306C90.0553 3.306 90.6313 3.414 91.1513 3.63C91.6753 3.846 92.1233 4.15 92.4953 4.542C92.8673 4.93 93.1553 5.394 93.3593 5.934C93.5633 6.47 93.6653 7.06 93.6653 7.704ZM92.4713 7.704C92.4713 7.176 92.3993 6.702 92.2553 6.282C92.1113 5.862 91.9073 5.508 91.6433 5.22C91.3793 4.928 91.0593 4.704 90.6833 4.548C90.3073 4.392 89.8873 4.314 89.4233 4.314C88.9633 4.314 88.5453 4.392 88.1693 4.548C87.7933 4.704 87.4713 4.928 87.2033 5.22C86.9393 5.508 86.7353 5.862 86.5913 6.282C86.4473 6.702 86.3753 7.176 86.3753 7.704C86.3753 8.232 86.4473 8.706 86.5913 9.126C86.7353 9.542 86.9393 9.896 87.2033 10.188C87.4713 10.476 87.7933 10.698 88.1693 10.854C88.5453 11.006 88.9633 11.082 89.4233 11.082C89.8873 11.082 90.3073 11.006 90.6833 10.854C91.0593 10.698 91.3793 10.476 91.6433 10.188C91.9073 9.896 92.1113 9.542 92.2553 9.126C92.3993 8.706 92.4713 8.232 92.4713 7.704ZM96.5315 8.412V12H95.3735V3.402H97.8035C98.3475 3.402 98.8175 3.458 99.2135 3.57C99.6095 3.678 99.9355 3.836 100.191 4.044C100.451 4.252 100.643 4.504 100.767 4.8C100.891 5.092 100.953 5.42 100.953 5.784C100.953 6.088 100.905 6.372 100.809 6.636C100.713 6.9 100.573 7.138 100.389 7.35C100.209 7.558 99.9875 7.736 99.7235 7.884C99.4635 8.032 99.1675 8.144 98.8355 8.22C98.9795 8.304 99.1075 8.426 99.2195 8.586L101.727 12H100.695C100.483 12 100.327 11.918 100.227 11.754L97.9955 8.682C97.9275 8.586 97.8535 8.518 97.7735 8.478C97.6935 8.434 97.5735 8.412 97.4135 8.412H96.5315ZM96.5315 7.566H97.7495C98.0895 7.566 98.3875 7.526 98.6435 7.446C98.9035 7.362 99.1195 7.246 99.2915 7.098C99.4675 6.946 99.5995 6.766 99.6875 6.558C99.7755 6.35 99.8195 6.12 99.8195 5.868C99.8195 5.356 99.6495 4.97 99.3095 4.71C98.9735 4.45 98.4715 4.32 97.8035 4.32H96.5315V7.566ZM108.781 11.022H112.501V12H107.617V3.402H108.781V11.022ZM121.286 7.704C121.286 8.348 121.184 8.94 120.98 9.48C120.776 10.016 120.488 10.478 120.116 10.866C119.744 11.254 119.296 11.556 118.772 11.772C118.252 11.984 117.676 12.09 117.044 12.09C116.412 12.09 115.836 11.984 115.316 11.772C114.796 11.556 114.35 11.254 113.978 10.866C113.606 10.478 113.318 10.016 113.114 9.48C112.91 8.94 112.808 8.348 112.808 7.704C112.808 7.06 112.91 6.47 113.114 5.934C113.318 5.394 113.606 4.93 113.978 4.542C114.35 4.15 114.796 3.846 115.316 3.63C115.836 3.414 116.412 3.306 117.044 3.306C117.676 3.306 118.252 3.414 118.772 3.63C119.296 3.846 119.744 4.15 120.116 4.542C120.488 4.93 120.776 5.394 120.98 5.934C121.184 6.47 121.286 7.06 121.286 7.704ZM120.092 7.704C120.092 7.176 120.02 6.702 119.876 6.282C119.732 5.862 119.528 5.508 119.264 5.22C119 4.928 118.68 4.704 118.304 4.548C117.928 4.392 117.508 4.314 117.044 4.314C116.584 4.314 116.166 4.392 115.79 4.548C115.414 4.704 115.092 4.928 114.824 5.22C114.56 5.508 114.356 5.862 114.212 6.282C114.068 6.702 113.996 7.176 113.996 7.704C113.996 8.232 114.068 8.706 114.212 9.126C114.356 9.542 114.56 9.896 114.824 10.188C115.092 10.476 115.414 10.698 115.79 10.854C116.166 11.006 116.584 11.082 117.044 11.082C117.508 11.082 117.928 11.006 118.304 10.854C118.68 10.698 119 10.476 119.264 10.188C119.528 9.896 119.732 9.542 119.876 9.126C120.02 8.706 120.092 8.232 120.092 7.704ZM126.709 11.154C126.941 11.154 127.153 11.144 127.345 11.124C127.541 11.1 127.725 11.066 127.897 11.022C128.069 10.978 128.231 10.926 128.383 10.866C128.535 10.802 128.687 10.73 128.839 10.65V8.754H127.507C127.431 8.754 127.369 8.732 127.321 8.688C127.277 8.644 127.255 8.59 127.255 8.526V7.866H129.895V11.166C129.679 11.322 129.453 11.458 129.217 11.574C128.985 11.69 128.735 11.788 128.467 11.868C128.203 11.944 127.919 12 127.615 12.036C127.311 12.076 126.981 12.096 126.625 12.096C126.001 12.096 125.429 11.99 124.909 11.778C124.389 11.562 123.941 11.262 123.565 10.878C123.189 10.49 122.895 10.026 122.683 9.486C122.475 8.946 122.371 8.352 122.371 7.704C122.371 7.048 122.473 6.45 122.677 5.91C122.885 5.37 123.179 4.908 123.559 4.524C123.943 4.136 124.405 3.836 124.945 3.624C125.489 3.412 126.097 3.306 126.769 3.306C127.109 3.306 127.425 3.332 127.717 3.384C128.009 3.432 128.279 3.504 128.527 3.6C128.779 3.692 129.011 3.806 129.223 3.942C129.435 4.074 129.633 4.224 129.817 4.392L129.487 4.92C129.419 5.028 129.331 5.082 129.223 5.082C129.159 5.082 129.089 5.06 129.013 5.016C128.913 4.96 128.801 4.892 128.677 4.812C128.553 4.732 128.401 4.656 128.221 4.584C128.045 4.508 127.835 4.444 127.591 4.392C127.351 4.34 127.065 4.314 126.733 4.314C126.249 4.314 125.811 4.394 125.419 4.554C125.027 4.71 124.693 4.936 124.417 5.232C124.141 5.524 123.929 5.88 123.781 6.3C123.633 6.716 123.559 7.184 123.559 7.704C123.559 8.248 123.635 8.734 123.787 9.162C123.943 9.586 124.161 9.946 124.441 10.242C124.721 10.538 125.053 10.764 125.437 10.92C125.821 11.076 126.245 11.154 126.709 11.154ZM133.067 12H131.903V3.402H133.067V12ZM135.967 3.402C136.071 3.402 136.147 3.416 136.195 3.444C136.247 3.468 136.305 3.52 136.369 3.6L141.349 10.08C141.337 9.976 141.329 9.876 141.325 9.78C141.321 9.68 141.319 9.584 141.319 9.492V3.402H142.339V12H141.751C141.659 12 141.581 11.984 141.517 11.952C141.457 11.92 141.397 11.866 141.337 11.79L136.363 5.316C136.371 5.416 136.377 5.514 136.381 5.61C136.385 5.706 136.387 5.794 136.387 5.874V12H135.367V3.402H135.967ZM148.118 3.402H149.084C149.188 3.402 149.274 3.428 149.342 3.48C149.41 3.532 149.456 3.598 149.48 3.678L151.256 9.654C151.288 9.762 151.316 9.878 151.34 10.002C151.368 10.126 151.394 10.256 151.418 10.392C151.446 10.256 151.474 10.126 151.502 10.002C151.53 9.874 151.562 9.758 151.598 9.654L153.62 3.678C153.644 3.61 153.69 3.548 153.758 3.492C153.83 3.432 153.916 3.402 154.016 3.402H154.352C154.456 3.402 154.54 3.428 154.604 3.48C154.672 3.532 154.72 3.598 154.748 3.678L156.758 9.654C156.83 9.862 156.894 10.1 156.95 10.368C156.974 10.236 156.996 10.11 157.016 9.99C157.036 9.87 157.062 9.758 157.094 9.654L158.876 3.678C158.896 3.606 158.94 3.542 159.008 3.486C159.08 3.43 159.166 3.402 159.266 3.402H160.172L157.49 12H156.446L154.268 5.442C154.224 5.318 154.184 5.174 154.148 5.01C154.128 5.09 154.108 5.168 154.088 5.244C154.072 5.316 154.054 5.382 154.034 5.442L151.844 12H150.8L148.118 3.402ZM162.68 12H161.516V3.402H162.68V12ZM170.836 3.402V4.38H168.058V12H166.894V4.38H164.104V3.402H170.836ZM179.03 12H177.86V8.088H173.228V12H172.058V3.402H173.228V7.236H177.86V3.402H179.03V12ZM189.111 11.076C189.467 11.076 189.785 11.016 190.065 10.896C190.345 10.776 190.581 10.608 190.773 10.392C190.969 10.176 191.117 9.918 191.217 9.618C191.321 9.318 191.373 8.988 191.373 8.628V3.402H192.531V8.628C192.531 9.124 192.451 9.584 192.291 10.008C192.135 10.432 191.909 10.8 191.613 11.112C191.321 11.42 190.963 11.662 190.539 11.838C190.115 12.014 189.639 12.102 189.111 12.102C188.583 12.102 188.107 12.014 187.683 11.838C187.259 11.662 186.899 11.42 186.603 11.112C186.307 10.8 186.079 10.432 185.919 10.008C185.763 9.584 185.685 9.124 185.685 8.628V3.402H186.843V8.622C186.843 8.982 186.893 9.312 186.993 9.612C187.097 9.912 187.245 10.17 187.437 10.386C187.633 10.602 187.871 10.772 188.151 10.896C188.435 11.016 188.755 11.076 189.111 11.076ZM198.939 4.746C198.903 4.806 198.865 4.852 198.825 4.884C198.785 4.912 198.733 4.926 198.669 4.926C198.601 4.926 198.521 4.892 198.429 4.824C198.341 4.756 198.227 4.682 198.087 4.602C197.951 4.518 197.785 4.442 197.589 4.374C197.397 4.306 197.163 4.272 196.887 4.272C196.627 4.272 196.397 4.308 196.197 4.38C195.997 4.448 195.829 4.542 195.693 4.662C195.561 4.782 195.461 4.924 195.393 5.088C195.325 5.248 195.291 5.422 195.291 5.61C195.291 5.85 195.349 6.05 195.465 6.21C195.585 6.366 195.741 6.5 195.933 6.612C196.129 6.724 196.349 6.822 196.593 6.906C196.841 6.986 197.093 7.07 197.349 7.158C197.609 7.246 197.861 7.346 198.105 7.458C198.353 7.566 198.573 7.704 198.765 7.872C198.961 8.04 199.117 8.246 199.233 8.49C199.353 8.734 199.413 9.034 199.413 9.39C199.413 9.766 199.349 10.12 199.221 10.452C199.093 10.78 198.905 11.066 198.657 11.31C198.413 11.554 198.111 11.746 197.751 11.886C197.395 12.026 196.989 12.096 196.533 12.096C195.977 12.096 195.469 11.996 195.009 11.796C194.553 11.592 194.163 11.318 193.839 10.974L194.175 10.422C194.207 10.378 194.245 10.342 194.289 10.314C194.337 10.282 194.389 10.266 194.445 10.266C194.529 10.266 194.625 10.312 194.733 10.404C194.841 10.492 194.975 10.59 195.135 10.698C195.299 10.806 195.495 10.906 195.723 10.998C195.955 11.086 196.237 11.13 196.569 11.13C196.845 11.13 197.091 11.092 197.307 11.016C197.523 10.94 197.705 10.834 197.853 10.698C198.005 10.558 198.121 10.392 198.201 10.2C198.281 10.008 198.321 9.794 198.321 9.558C198.321 9.298 198.261 9.086 198.141 8.922C198.025 8.754 197.871 8.614 197.679 8.502C197.487 8.39 197.267 8.296 197.019 8.22C196.775 8.14 196.523 8.06 196.263 7.98C196.007 7.896 195.755 7.8 195.507 7.692C195.263 7.584 195.045 7.444 194.853 7.272C194.661 7.1 194.505 6.886 194.385 6.63C194.269 6.37 194.211 6.05 194.211 5.67C194.211 5.366 194.269 5.072 194.385 4.788C194.505 4.504 194.677 4.252 194.901 4.032C195.125 3.812 195.401 3.636 195.729 3.504C196.061 3.372 196.441 3.306 196.869 3.306C197.349 3.306 197.787 3.382 198.183 3.534C198.579 3.686 198.925 3.906 199.221 4.194L198.939 4.746ZM206.196 3.402V4.35H202.068V7.206H205.41V8.118H202.068V11.052H206.196V12H200.898V3.402H206.196ZM209.149 8.412V12H207.991V3.402H210.421C210.965 3.402 211.435 3.458 211.831 3.57C212.227 3.678 212.553 3.836 212.809 4.044C213.069 4.252 213.261 4.504 213.385 4.8C213.509 5.092 213.571 5.42 213.571 5.784C213.571 6.088 213.523 6.372 213.427 6.636C213.331 6.9 213.191 7.138 213.007 7.35C212.827 7.558 212.605 7.736 212.341 7.884C212.081 8.032 211.785 8.144 211.453 8.22C211.597 8.304 211.725 8.426 211.837 8.586L214.345 12H213.313C213.101 12 212.945 11.918 212.845 11.754L210.613 8.682C210.545 8.586 210.471 8.518 210.391 8.478C210.311 8.434 210.191 8.412 210.031 8.412H209.149ZM209.149 7.566H210.367C210.707 7.566 211.005 7.526 211.261 7.446C211.521 7.362 211.737 7.246 211.909 7.098C212.085 6.946 212.217 6.766 212.305 6.558C212.393 6.35 212.437 6.12 212.437 5.868C212.437 5.356 212.267 4.97 211.927 4.71C211.591 4.45 211.089 4.32 210.421 4.32H209.149V7.566ZM216.193 3.402C216.297 3.402 216.373 3.416 216.421 3.444C216.473 3.468 216.531 3.52 216.595 3.6L221.575 10.08C221.563 9.976 221.555 9.876 221.551 9.78C221.547 9.68 221.545 9.584 221.545 9.492V3.402H222.565V12H221.977C221.885 12 221.807 11.984 221.743 11.952C221.683 11.92 221.623 11.866 221.563 11.79L216.589 5.316C216.597 5.416 216.603 5.514 216.607 5.61C216.611 5.706 216.613 5.794 216.613 5.874V12H215.593V3.402H216.193ZM231.738 12H230.838C230.734 12 230.65 11.974 230.586 11.922C230.522 11.87 230.474 11.804 230.442 11.724L229.638 9.648H225.78L224.976 11.724C224.948 11.796 224.9 11.86 224.832 11.916C224.764 11.972 224.68 12 224.58 12H223.68L227.118 3.402H228.3L231.738 12ZM226.104 8.808H229.314L227.964 5.31C227.876 5.094 227.79 4.824 227.706 4.5C227.662 4.664 227.618 4.816 227.574 4.956C227.534 5.092 227.494 5.212 227.454 5.316L226.104 8.808ZM237.05 8.892C237.106 8.988 237.154 9.09 237.194 9.198C237.238 9.302 237.28 9.408 237.32 9.516C237.36 9.404 237.402 9.298 237.446 9.198C237.49 9.094 237.54 8.99 237.596 8.886L240.506 3.6C240.558 3.508 240.612 3.452 240.668 3.432C240.724 3.412 240.804 3.402 240.908 3.402H241.766V12H240.746V5.682C240.746 5.598 240.748 5.508 240.752 5.412C240.756 5.316 240.762 5.218 240.77 5.118L237.824 10.494C237.724 10.674 237.584 10.764 237.404 10.764H237.236C237.056 10.764 236.916 10.674 236.816 10.494L233.804 5.1C233.816 5.204 233.824 5.306 233.828 5.406C233.836 5.506 233.84 5.598 233.84 5.682V12H232.82V3.402H233.678C233.782 3.402 233.862 3.412 233.918 3.432C233.974 3.452 234.028 3.508 234.08 3.6L237.05 8.892ZM249.157 3.402V4.35H245.029V7.206H248.371V8.118H245.029V11.052H249.157V12H243.859V3.402H249.157Z" fill="white"/>
<line y1="7.19411" x2="83.6735" y2="7.19411" stroke="white"/>
<line x1="250" y1="7.0603" x2="327" y2="7.0603" stroke="white"/>
</svg>
