<svg xmlns="http://www.w3.org/2000/svg" xmlns:xlink="http://www.w3.org/1999/xlink" width="1920" height="1155" viewBox="0 0 1920 1155">
  <defs>
    <linearGradient id="linear-gradient" x1="0.5" y1="-0.806" x2="0.5" y2="1.065" gradientUnits="objectBoundingBox">
      <stop offset="0" stop-color="#59bde7"/>
      <stop offset="0.795" stop-color="#4ea6cb" stop-opacity="0.231"/>
      <stop offset="1" stop-color="#00b4ff" stop-opacity="0.969"/>
      <stop offset="1" stop-color="#2d5f74"/>
    </linearGradient>
    <filter id="Rectangle_19" x="35" y="958" width="1883" height="197" filterUnits="userSpaceOnUse">
      <feOffset dx="10" dy="10" input="SourceAlpha"/>
      <feGaussianBlur stdDeviation="5" result="blur"/>
      <feFlood flood-opacity="0.161"/>
      <feComposite operator="in" in2="blur"/>
      <feComposite in="SourceGraphic"/>
    </filter>
  </defs>
  <g id="Group_103" data-name="Group 103" transform="translate(0 0)">
    <g id="Group_82" data-name="Group 82" transform="translate(-4.667 -135.807)">
      <g id="Group_102" data-name="Group 102" transform="translate(4.667 135.807)">
        <g id="Group_101" data-name="Group 101" transform="translate(0 0)">
          <g id="Group_100" data-name="Group 100">
            <g id="Rectangle_1106" data-name="Rectangle 1106" stroke="#707070" stroke-width="1" fill="url(#linear-gradient)">
              <rect width="1920" height="1134" stroke="none"/>
              <rect x="0.5" y="0.5" width="1919" height="1133" fill="none"/>
            </g>
          </g>
        </g>
      </g>
      <g id="Group_33" data-name="Group 33" transform="translate(68.667 1263.807) rotate(-90)" opacity="0.41">
        <path id="Polygon_1" data-name="Polygon 1" d="M149.5,0,299,259H0Z" transform="translate(259) rotate(90)" fill="#fff" opacity="0.87"/>
        <path id="Polygon_2" data-name="Polygon 2" d="M149.5,0,299,259H0Z" transform="translate(291 76) rotate(90)" fill="#fff" opacity="0.18"/>
      </g>
      <g transform="matrix(1, 0, 0, 1, 4.67, 135.81)" filter="url(#Rectangle_19)">
        <path id="Rectangle_19-2" data-name="Rectangle 19" d="M167,0H1686a167,167,0,0,1,167,167v0a0,0,0,0,1,0,0H0a0,0,0,0,1,0,0v0A167,167,0,0,1,167,0Z" transform="translate(40 963)" fill="#fff" opacity="0.95"/>
      </g>
    </g>
  </g>
</svg>
